<?xml version="1.0" encoding="utf-8"?>
<!-- Generator: Adobe Illustrator 17.0.0, SVG Export Plug-In . SVG Version: 6.00 Build 0)  -->
<!DOCTYPE svg PUBLIC "-//W3C//DTD SVG 1.1//EN" "http://www.w3.org/Graphics/SVG/1.1/DTD/svg11.dtd">
<svg version="1.1" id="图层_1" xmlns="http://www.w3.org/2000/svg" xmlns:xlink="http://www.w3.org/1999/xlink" x="0px" y="0px"
	 width="40px" height="40px" viewBox="0 0 40 40" enable-background="new 0 0 40 40" xml:space="preserve">
<g>
	<path fill="#267ce0" d="M39.25,31.55c0,4.253-3.447,7.7-7.7,7.7H8.45c-4.253,0-7.7-3.447-7.7-7.7V8.45c0-4.253,3.447-7.7,7.7-7.7
		h23.1c4.253,0,7.7,3.447,7.7,7.7V31.55z"/>
	<g>
		<path fill="#FFFFFF" d="M3.643,23.328c0-0.632,0.462-1.094,1.017-1.094s1.017,0.462,1.017,1.094s-0.462,1.063-1.017,1.063
			C4.105,24.391,3.643,23.959,3.643,23.328z"/>
		<path fill="#FFFFFF" d="M7.385,20.015c0-2.788,1.895-4.406,4.037-4.406c1.094,0,1.848,0.462,2.449,0.986l-0.724,0.94
			c-0.493-0.447-1.002-0.755-1.679-0.755c-1.51,0-2.619,1.31-2.619,3.235c0,1.926,1.048,3.205,2.588,3.205
			c0.77,0,1.448-0.354,1.972-0.832l0.601,0.939c-0.74,0.678-1.695,1.063-2.696,1.063C9.096,24.391,7.385,22.789,7.385,20.015z"/>
		<path fill="#FFFFFF" d="M14.855,20.015c0-2.788,1.833-4.406,3.882-4.406s3.882,1.618,3.882,4.406c0,2.773-1.833,4.375-3.882,4.375
			S14.855,22.789,14.855,20.015z M21.171,20.015c0-1.925-0.986-3.235-2.434-3.235s-2.419,1.31-2.419,3.235
			c0,1.926,0.97,3.205,2.419,3.205C20.185,23.22,21.171,21.941,21.171,20.015z"/>
		<path fill="#FFFFFF" d="M24.818,15.825h1.155l0.124,1.217h0.046c0.724-0.801,1.602-1.432,2.604-1.432
			c1.279,0,1.972,0.616,2.311,1.602c0.863-0.94,1.741-1.602,2.758-1.602c1.726,0,2.542,1.14,2.542,3.281v5.3h-1.402v-5.115
			c0-1.572-0.493-2.234-1.556-2.234c-0.647,0-1.325,0.416-2.111,1.279v6.07h-1.402v-5.115c0-1.572-0.493-2.234-1.556-2.234
			c-0.632,0-1.34,0.416-2.111,1.279v6.07h-1.402V15.825z"/>
	</g>
</g>
</svg>
