<?xml version="1.0" encoding="utf-8"?>
<!-- Generator: Adobe Illustrator 17.0.0, SVG Export Plug-In . SVG Version: 6.00 Build 0)  -->
<!DOCTYPE svg PUBLIC "-//W3C//DTD SVG 1.1//EN" "http://www.w3.org/Graphics/SVG/1.1/DTD/svg11.dtd">
<svg version="1.1" id="图层_1" xmlns="http://www.w3.org/2000/svg" xmlns:xlink="http://www.w3.org/1999/xlink" x="0px" y="0px"
	 width="40px" height="40px" viewBox="0 0 40 40" enable-background="new 0 0 40 40" xml:space="preserve">
<g>
	<path fill="#9ca4bf" d="M16.331,0.588H2.201c-0.951,0-1.758,0.787-1.758,1.758v14.129c0,0.951,0.787,1.758,1.758,1.758h14.133
		c0.951,0,1.758-0.787,1.758-1.758V2.343C18.089,1.391,17.302,0.588,16.331,0.588 M16.331,21.762H2.201
		c-0.951,0-1.758,0.787-1.758,1.758v14.133c0,0.951,0.787,1.758,1.758,1.758h14.133c0.951,0,1.758-0.787,1.758-1.758V23.516
		C18.089,22.565,17.302,21.762,16.331,21.762 M37.504,21.762H23.375c-0.951,0-1.758,0.787-1.758,1.758v14.133
		c0,0.951,0.787,1.758,1.758,1.758h14.129c0.951,0,1.758-0.787,1.758-1.758V23.516C39.262,22.565,38.476,21.762,37.504,21.762"/>
	<g>
		<path fill="#9ca4bf" d="M30,19.702c-5.27,0-9.557-4.287-9.557-9.557S24.73,0.588,30,0.588s9.557,4.287,9.557,9.557
			S35.27,19.702,30,19.702z M30,2.303c-4.324,0-7.842,3.518-7.842,7.842s3.518,7.842,7.842,7.842s7.842-3.518,7.842-7.842
			S34.324,2.303,30,2.303z"/>
	</g>
</g>
</svg>
